# xmcd
#
# Track frame offsets: 
#        150
#        17872
#        32252
#        51059
#        67189
#        85151
#        101701
#        119440
#        140100
#        156637
#        169269
#        186828
#        207247
#        224026
#
# Disc length: 3268 seconds
#
# Revision: 2
# Processed by: cddbd v1.5.2PL0 Copyright (c) Steve Scherf et al.
# Submitted via: ExactAudioCopy v1.0b4
#
DISCID=d80cc20e
DTITLE=Vários - Pagode Saudade (2011)
DYEAR=2011
DGENRE=Other
TTITLE0=Só Pra Contrariar - Que Se Chama Amor - Só Pra Contrariar
TTITLE1=Soweto - Derê - Soweto
TTITLE2=Os Travessos - Tô Filmando (Sorria) - Os Travessos
TTITLE3=Raça Negra - É Tarde Demais - Raça Negra
TTITLE4=Katinguelê - Recada À Minha Amada - Katinguelê
TTITLE5=Os Morenos - Marrom Bombom - Os Morenos
TTITLE6=Banda Brasi - Olha Pra Mim - Banda Brasil
TTITLE7=Negritude Junior - Que Dure Para Sempre - Negritude Junior
TTITLE8=Grupo Molejo - Cilada - Grupo Molejo
TTITLE9=Ginga Pura - Vergonha Na Cara - Ginga Pura
TTITLE10=Razão Brasileira - Eu Menti - Razão Brasileira
TTITLE11=Art Popular - Temporal - Art Popular
TTITLE12=Grupo Kiloucura - Pela Vida Inteira - Grupo Kiloucura
TTITLE13=Sem Compromisso - Eternamente - Sem Compromisso
EXTD=
EXTT0=
EXTT1=
EXTT2=
EXTT3=
EXTT4=
EXTT5=
EXTT6=
EXTT7=
EXTT8=
EXTT9=
EXTT10=
EXTT11=
EXTT12=
EXTT13=
PLAYORDER=
